HIERARCHY
ROOT joint_Root
{
	OFFSET 0.0 0.0 0.0
	CHANNELS 6 Xposition Yposition Zposition Zrotation Xrotation Yrotation 
	JOINT Hips
	{
		OFFSET 4.5925 91.4895 -427.239
		CHANNELS 6 Xposition Yposition Zposition Zrotation Xrotation Yrotation 
		JOINT Spine
		{
			OFFSET 15.7357 0.0 0.0
			CHANNELS 6 Xposition Yposition Zposition Zrotation Xrotation Yrotation 
			JOINT Chest
			{
				OFFSET 8.98455 -0.406207 0.0
				CHANNELS 6 Xposition Yposition Zposition Zrotation Xrotation Yrotation 
				JOINT Neck
				{
					OFFSET 16.3773 0.0 0.0
					CHANNELS 6 Xposition Yposition Zposition Zrotation Xrotation Yrotation 
					JOINT Head
					{
						OFFSET 6.45672 0.0 0.0
						CHANNELS 6 Xposition Yposition Zposition Zrotation Xrotation Yrotation 
						End Site
						{
							OFFSET 0.0 0.0 0.0
						}
					}
				}
				JOINT Shoulder_L
				{
					OFFSET 12.9942 -0.242716 4.98039
					CHANNELS 6 Xposition Yposition Zposition Zrotation Xrotation Yrotation 
					JOINT UpperArm_L
					{
						OFFSET 5.34809 0.0 0.0
						CHANNELS 6 Xposition Yposition Zposition Zrotation Xrotation Yrotation 
						JOINT LowerArm_L
						{
							OFFSET 24.3286 1.87007e-05 0.0
							CHANNELS 6 Xposition Yposition Zposition Zrotation Xrotation Yrotation 
							JOINT Hand_L
							{
								OFFSET 22.2916 0.0 0.0
								CHANNELS 6 Xposition Yposition Zposition Zrotation Xrotation Yrotation 
								End Site
								{
									OFFSET 0.0 0.0 0.0
								}
							}
						}
					}
				}
				JOINT Shoulder_R
				{
					OFFSET 12.9945 -0.242716 -4.98039
					CHANNELS 6 Xposition Yposition Zposition Zrotation Xrotation Yrotation 
					JOINT UpperArm_R
					{
						OFFSET -5.34813 0.0 0.0
						CHANNELS 6 Xposition Yposition Zposition Zrotation Xrotation Yrotation 
						JOINT LowerArm_R
						{
							OFFSET -24.3289 0.000322201 0.0
							CHANNELS 6 Xposition Yposition Zposition Zrotation Xrotation Yrotation 
							JOINT Hand_R
							{
								OFFSET -22.2915 -0.000108084 0.0
								CHANNELS 6 Xposition Yposition Zposition Zrotation Xrotation Yrotation 
								End Site
								{
									OFFSET 0.0 0.0 0.0
								}
							}
						}
					}
				}
			}
		}
		JOINT UpperLeg_L
		{
			OFFSET -2.19248 -6.46944 0.0
			CHANNELS 6 Xposition Yposition Zposition Zrotation Xrotation Yrotation 
			JOINT LowerLeg_L
			{
				OFFSET 39.0811 0.0 -1.23785e-05
				CHANNELS 6 Xposition Yposition Zposition Zrotation Xrotation Yrotation 
				JOINT Foot_L
				{
					OFFSET 40.9854 0.0 -1.26872e-05
					CHANNELS 6 Xposition Yposition Zposition Zrotation Xrotation Yrotation 
					JOINT Toes_L
					{
						OFFSET 11.7543 0.0 0.0
						CHANNELS 6 Xposition Yposition Zposition Zrotation Xrotation Yrotation 
						End Site
						{
							OFFSET 0.0 0.0 0.0
						}
					}
				}
			}
		}
		JOINT UpperLeg_R
		{
			OFFSET -2.19251 6.46944 0.0
			CHANNELS 6 Xposition Yposition Zposition Zrotation Xrotation Yrotation 
			JOINT LowerLeg_R
			{
				OFFSET -39.0811 -0.00228153 -0.0401928
				CHANNELS 6 Xposition Yposition Zposition Zrotation Xrotation Yrotation 
				JOINT Foot_R
				{
					OFFSET -40.9854 0.0 0.0
					CHANNELS 6 Xposition Yposition Zposition Zrotation Xrotation Yrotation 
					JOINT Toes_R
					{
						OFFSET -11.7543 0.0 0.0
						CHANNELS 6 Xposition Yposition Zposition Zrotation Xrotation Yrotation 
						End Site
						{
							OFFSET 0.0 0.0 0.0
						}
					}
				}
			}
		}
	}
}
MOTION
Frames:	5
Frame Time:	0.0333333
0.000000 0.000000 0.000000 0.000000 0.000000 -0.000000 -0.461879 90.556100 0.134587 89.841200 -2.609330 14.210300 15.735700 0.000005 -0.000001 87.029700 80.174500 -87.228800 8.984550 -0.406207 -0.000000 11.858200 -1.016700 -0.292649 16.377300 -0.000001 -0.000001 12.863900 -3.187020 1.022880 6.456720 -0.000001 -0.000000 5.413020 -1.973570 -5.355580 12.994200 -0.242716 4.980390 -91.659400 6.401760 -75.435200 5.348090 -0.000007 -0.000001 -58.794800 41.578600 -20.128600 24.328600 0.000019 0.000005 7.855500 21.097200 -20.971800 22.291600 -0.000001 0.000005 7.940580 5.268600 0.936011 12.994500 -0.242716 -4.980390 88.409600 11.237100 -81.890900 -5.348130 -0.000001 -0.000004 -60.337700 28.351000 -14.364700 -24.328900 0.000322 -0.000009 0.870984 2.443550 -19.646900 -22.291500 -0.000108 -0.000004 12.739300 5.361160 -1.715030 -2.192480 -6.469440 -0.000000 -173.934000 -12.639500 4.006380 39.081100 -0.000007 -0.000012 -0.188039 0.305587 31.605800 40.985400 -0.000006 -0.000013 0.238896 5.012240 -71.003700 11.754300 -0.000000 0.000003 -0.000209 -0.001923 -16.650000 -2.192510 6.469440 -0.000001 170.930000 22.971500 -173.914000 -39.081100 -0.002282 -0.040193 -0.219152 0.368689 31.105300 -40.985400 0.000008 0.000006 3.541750 14.025100 -71.791100 -11.754300 -0.000006 -0.000006 -0.002357 -0.033098 -17.919000
0.000000 0.000000 0.000000 0.000000 0.000000 -0.000000 -0.427957 90.539600 0.148857 89.860600 -2.525880 14.318700 15.735700 0.000005 -0.000001 87.060500 80.179600 -87.278400 8.984550 -0.406207 -0.000000 11.848400 -1.006360 -0.331229 16.377300 -0.000001 -0.000001 13.439600 -3.231190 0.793090 6.456720 -0.000001 -0.000000 5.936370 -2.098000 -6.246400 12.994200 -0.242716 4.980390 -91.661000 6.369890 -75.352300 5.348090 -0.000007 -0.000001 -58.879700 41.497500 -20.012800 24.328600 0.000019 0.000005 7.831690 21.088300 -20.920700 22.291600 -0.000001 0.000005 7.975430 5.269260 0.918191 12.994500 -0.242716 -4.980390 88.353700 11.258300 -81.625200 -5.348130 -0.000001 -0.000004 -59.856700 27.022700 -14.207900 -24.328900 0.000322 -0.000009 0.916111 2.506710 -20.104400 -22.291500 -0.000108 -0.000004 12.317200 5.362260 -1.748680 -2.192480 -6.469440 -0.000000 -173.961000 -12.583300 4.082360 39.081100 -0.000007 -0.000012 -0.190409 0.308606 31.674700 40.985400 -0.000006 -0.000013 0.269574 5.029410 -71.049400 11.754300 -0.000000 0.000003 -0.000215 -0.001966 -16.651600 -2.192510 6.469440 -0.000001 170.838000 22.952200 -173.819000 -39.081100 -0.002282 -0.040193 -0.220365 0.369537 31.185000 -40.985400 0.000008 0.000006 3.507320 13.971500 -71.835100 -11.754300 -0.000006 -0.000006 -0.002523 -0.035078 -17.999600
0.000000 0.000000 0.000000 0.000000 0.000000 -0.000000 -0.385948 90.530500 0.170655 89.859700 -2.438030 14.441200 15.735700 0.000005 -0.000001 87.004400 80.180800 -87.233200 8.984550 -0.406207 -0.000000 11.844900 -1.025680 -0.350995 16.377300 -0.000001 -0.000001 14.018900 -3.218310 0.442805 6.456720 -0.000001 -0.000000 6.377090 -2.161090 -7.124120 12.994200 -0.242716 4.980390 -91.665100 6.345290 -75.263500 5.348090 -0.000007 -0.000001 -59.040800 41.442500 -19.814300 24.328600 0.000019 0.000005 7.817750 21.038700 -20.929100 22.291600 -0.000001 0.000005 7.966730 5.268770 0.931397 12.994500 -0.242716 -4.980390 88.291300 11.204900 -81.272400 -5.348130 -0.000001 -0.000004 -59.378800 25.185200 -14.139000 -24.328900 0.000322 -0.000009 0.805806 2.155800 -20.525900 -22.291500 -0.000108 -0.000004 11.970700 5.363740 -1.794040 -2.192480 -6.469440 -0.000000 -173.979000 -12.526200 4.191070 39.081100 -0.000007 -0.000012 -0.186633 0.302003 31.715700 40.985400 -0.000006 -0.000013 0.315604 5.059080 -71.088400 11.754300 -0.000000 0.000003 -0.000196 -0.001821 -16.646300 -2.192510 6.469440 -0.000001 170.728000 22.989100 -173.665000 -39.081100 -0.002282 -0.040193 -0.221683 0.371368 31.208600 -40.985400 0.000008 0.000006 3.466210 13.948400 -71.853100 -11.754300 -0.000006 -0.000006 -0.002436 -0.034050 -17.957700
0.000000 0.000000 0.000000 0.000000 0.000000 -0.000000 -0.331556 90.519500 0.163911 89.851700 -2.402590 14.536600 15.735700 0.000005 -0.000001 86.918600 80.191400 -87.166400 8.984550 -0.406207 -0.000000 11.822000 -1.054320 -0.386301 16.377300 -0.000001 -0.000001 14.482300 -3.159370 0.072180 6.456720 -0.000001 -0.000000 6.913730 -2.178270 -8.041560 12.994200 -0.242716 4.980390 -91.662800 6.313110 -75.211400 5.348090 -0.000007 -0.000001 -59.325700 41.259800 -19.473200 24.328600 0.000019 0.000005 7.823050 21.014000 -20.963800 22.291600 -0.000001 0.000005 7.934120 5.271700 0.852205 12.994500 -0.242716 -4.980390 88.254100 11.085200 -80.991600 -5.348130 -0.000001 -0.000004 -58.827600 22.963400 -14.142500 -24.328900 0.000322 -0.000009 0.659799 1.728630 -20.925900 -22.291500 -0.000108 -0.000004 11.952000 5.368110 -1.928180 -2.192480 -6.469440 -0.000000 -173.997000 -12.497400 4.246110 39.081100 -0.000007 -0.000012 -0.185970 0.300144 31.782700 40.985400 -0.000006 -0.000013 0.356216 5.048350 -71.124500 11.754300 -0.000000 0.000003 -0.000214 -0.001961 -16.651400 -2.192510 6.469440 -0.000001 170.647000 22.998600 -173.585000 -39.081100 -0.002282 -0.040193 -0.224285 0.374943 31.257300 -40.985400 0.000008 0.000006 3.434310 13.956300 -71.859100 -11.754300 -0.000006 -0.000006 -0.002297 -0.032379 -17.889800
0.000000 0.000000 0.000000 0.000000 0.000000 -0.000000 -0.256259 90.513600 0.169944 89.901500 -2.462710 14.641000 15.735700 0.000005 -0.000001 86.988300 80.189900 -87.290400 8.984550 -0.406207 -0.000000 11.825700 -1.032770 -0.497050 16.377300 -0.000001 -0.000001 14.909900 -3.049850 -0.297299 6.456720 -0.000001 -0.000000 7.333760 -2.055540 -8.856880 12.994200 -0.242716 4.980390 -91.664100 6.296840 -75.164400 5.348090 -0.000007 -0.000001 -59.506300 41.176300 -19.186600 24.328600 0.000019 0.000005 7.851850 20.979600 -21.065200 22.291600 -0.000001 0.000005 7.907600 5.269870 0.901708 12.994500 -0.242716 -4.980390 88.221200 10.933600 -80.701300 -5.348130 -0.000001 -0.000004 -58.182300 20.104500 -14.294800 -24.328900 0.000322 -0.000009 0.514821 1.322260 -21.315700 -22.291500 -0.000108 -0.000004 11.971400 5.368640 -1.944630 -2.192480 -6.469440 -0.000000 -174.041000 -12.603200 4.376450 39.081100 -0.000007 -0.000012 -0.187091 0.302004 31.778500 40.985400 -0.000006 -0.000013 0.414869 5.065700 -71.146700 11.754300 -0.000000 0.000003 -0.000202 -0.001866 -16.647900 -2.192510 6.469440 -0.000001 170.540000 22.877300 -173.517000 -39.081100 -0.002282 -0.040193 -0.222026 0.370470 31.308900 -40.985400 0.000008 0.000006 3.380850 13.933600 -71.866100 -11.754300 -0.000006 -0.000006 -0.002395 -0.033562 -17.937900
